/* XPM */
static char *circle[] = {
"16 16 2 1",
" 	c #FFFFFF",
"x	c #9A2EFE",

"                ",
"     xxxxxxx    ",
"   xxxxxxxxxxx  ",
"  xxxxxxxxxxxxx ",
"  xxxxxxxxxxxxx ",
" xxxxxxxxxxxxxxx",
" xxxxxxxxxxxxxxx",
" xxxxxxxxxxxxxxx",
"xxxxxxxxxxxxxxxx",
" xxxxxxxxxxxxxxx",
" xxxxxxxxxxxxxxx",
" xxxxxxxxxxxxxxx",
"  xxxxxxxxxxxxx ",
"  xxxxxxxxxxxxx ",
"   xxxxxxxxxxx  ",
"     xxxxxxx    ",
};
